<?xml version="1.0" encoding="utf-8"?>
<!-- Generator: Adobe Illustrator 16.0.0, SVG Export Plug-In . SVG Version: 6.00 Build 0)  -->
<!DOCTYPE svg PUBLIC "-//W3C//DTD SVG 1.1//EN" "http://www.w3.org/Graphics/SVG/1.1/DTD/svg11.dtd">
<svg version="1.1" id="Layer_1" xmlns="http://www.w3.org/2000/svg" xmlns:xlink="http://www.w3.org/1999/xlink" x="0px" y="0px"
	 width="600px" height="500px" viewBox="0 0 600 500" enable-background="new 0 0 600 500" xml:space="preserve">
<polygon fill="#A89005" points="376,0 0,0 0,500 376,500 600,250 "/>
<path fill="#CCAB23" d="M0,9.333v2.893c4.179,0.076,7.542,3.063,7.542,6.742c0,3.68-3.363,6.666-7.542,6.742v2.892
	c6.002-0.076,10.843-4.357,10.843-9.634S6.002,9.409,0,9.333z"/>
<path fill="#CCAB23" d="M0,38.07v2.893c4.179,0.076,7.542,3.063,7.542,6.742c0,3.68-3.363,6.666-7.542,6.742v2.892
	c6.002-0.076,10.843-4.357,10.843-9.634S6.002,38.146,0,38.07z"/>
<path fill="#CCAB23" d="M25.501,28.608c-6.078,0-11.005,4.317-11.005,9.642s4.927,9.642,11.005,9.642s11.005-4.317,11.005-9.642
	S31.579,28.608,25.501,28.608z M25.501,45c-4.254,0-7.704-3.022-7.704-6.75c0-3.727,3.449-6.749,7.704-6.749
	s7.703,3.022,7.703,6.749C33.205,41.978,29.756,45,25.501,45z"/>
<path fill="#CCAB23" d="M25.501,57.346c-6.078,0-11.005,4.317-11.005,9.642s4.927,9.642,11.005,9.642s11.005-4.317,11.005-9.642
	S31.579,57.346,25.501,57.346z M25.501,73.737c-4.254,0-7.704-3.022-7.704-6.75c0-3.727,3.449-6.749,7.704-6.749
	s7.703,3.022,7.703,6.749C33.205,70.715,29.756,73.737,25.501,73.737z"/>
<path fill="#CCAB23" d="M77.092,28.608c-6.078,0-11.005,4.317-11.005,9.642s4.927,9.642,11.005,9.642s11.005-4.317,11.005-9.642
	S83.17,28.608,77.092,28.608z M77.092,45c-4.254,0-7.704-3.022-7.704-6.75c0-3.727,3.449-6.749,7.704-6.749s7.703,3.022,7.703,6.749
	C84.795,41.978,81.347,45,77.092,45z"/>
<path fill="#CCAB23" d="M77.092,57.346c-6.078,0-11.005,4.317-11.005,9.642s4.927,9.642,11.005,9.642s11.005-4.317,11.005-9.642
	S83.17,57.346,77.092,57.346z M77.092,73.737c-4.254,0-7.704-3.022-7.704-6.75c0-3.727,3.449-6.749,7.704-6.749
	s7.703,3.022,7.703,6.749C84.795,70.715,81.347,73.737,77.092,73.737z"/>
<path fill="#CCAB23" d="M128.683,28.608c-6.078,0-11.005,4.317-11.005,9.642s4.927,9.642,11.005,9.642s11.005-4.317,11.005-9.642
	S134.761,28.608,128.683,28.608z M128.683,45c-4.254,0-7.704-3.022-7.704-6.75c0-3.727,3.449-6.749,7.704-6.749
	s7.703,3.022,7.703,6.749C136.386,41.978,132.938,45,128.683,45z"/>
<path fill="#CCAB23" d="M128.683,57.346c-6.078,0-11.005,4.317-11.005,9.642s4.927,9.642,11.005,9.642s11.005-4.317,11.005-9.642
	S134.761,57.346,128.683,57.346z M128.683,73.737c-4.254,0-7.704-3.022-7.704-6.75c0-3.727,3.449-6.749,7.704-6.749
	s7.703,3.022,7.703,6.749C136.386,70.715,132.938,73.737,128.683,73.737z"/>
<path fill="#CCAB23" d="M180.274,28.608c-6.078,0-11.005,4.317-11.005,9.642s4.927,9.642,11.005,9.642s11.005-4.317,11.005-9.642
	S186.352,28.608,180.274,28.608z M180.274,45c-4.254,0-7.704-3.022-7.704-6.75c0-3.727,3.449-6.749,7.704-6.749
	s7.703,3.022,7.703,6.749C187.977,41.978,184.528,45,180.274,45z"/>
<path fill="#CCAB23" d="M180.274,57.346c-6.078,0-11.005,4.317-11.005,9.642s4.927,9.642,11.005,9.642s11.005-4.317,11.005-9.642
	S186.352,57.346,180.274,57.346z M180.274,73.737c-4.254,0-7.704-3.022-7.704-6.75c0-3.727,3.449-6.749,7.704-6.749
	s7.703,3.022,7.703,6.749C187.977,70.715,184.528,73.737,180.274,73.737z"/>
<path fill="#CCAB23" d="M231.865,28.608c-6.078,0-11.005,4.317-11.005,9.642s4.927,9.642,11.005,9.642s11.005-4.317,11.005-9.642
	S237.942,28.608,231.865,28.608z M231.865,45c-4.254,0-7.704-3.022-7.704-6.75c0-3.727,3.449-6.749,7.704-6.749
	s7.703,3.022,7.703,6.749C239.568,41.978,236.119,45,231.865,45z"/>
<path fill="#CCAB23" d="M231.865,57.346c-6.078,0-11.005,4.317-11.005,9.642s4.927,9.642,11.005,9.642s11.005-4.317,11.005-9.642
	S237.942,57.346,231.865,57.346z M231.865,73.737c-4.254,0-7.704-3.022-7.704-6.75c0-3.727,3.449-6.749,7.704-6.749
	s7.703,3.022,7.703,6.749C239.568,70.715,236.119,73.737,231.865,73.737z"/>
<path fill="#CCAB23" d="M283.456,28.608c-6.078,0-11.005,4.317-11.005,9.642s4.927,9.642,11.005,9.642s11.005-4.317,11.005-9.642
	S289.533,28.608,283.456,28.608z M283.456,45c-4.254,0-7.704-3.022-7.704-6.75c0-3.727,3.449-6.749,7.704-6.749
	s7.703,3.022,7.703,6.749C291.159,41.978,287.71,45,283.456,45z"/>
<path fill="#CCAB23" d="M283.456,57.346c-6.078,0-11.005,4.317-11.005,9.642s4.927,9.642,11.005,9.642s11.005-4.317,11.005-9.642
	S289.533,57.346,283.456,57.346z M283.456,73.737c-4.254,0-7.704-3.022-7.704-6.75c0-3.727,3.449-6.749,7.704-6.749
	s7.703,3.022,7.703,6.749C291.159,70.715,287.71,73.737,283.456,73.737z"/>
<path fill="#CCAB23" d="M335.047,28.608c-6.078,0-11.006,4.317-11.006,9.642s4.928,9.642,11.006,9.642
	c6.077,0,11.004-4.317,11.004-9.642S341.124,28.608,335.047,28.608z M335.047,45c-4.255,0-7.704-3.022-7.704-6.75
	c0-3.727,3.449-6.749,7.704-6.749c4.254,0,7.703,3.022,7.703,6.749C342.75,41.978,339.301,45,335.047,45z"/>
<path fill="#CCAB23" d="M335.047,57.346c-6.078,0-11.006,4.317-11.006,9.642s4.928,9.642,11.006,9.642
	c6.077,0,11.004-4.317,11.004-9.642S341.124,57.346,335.047,57.346z M335.047,73.737c-4.255,0-7.704-3.022-7.704-6.75
	c0-3.727,3.449-6.749,7.704-6.749c4.254,0,7.703,3.022,7.703,6.749C342.75,70.715,339.301,73.737,335.047,73.737z"/>
<path fill="#CCAB23" d="M386.638,28.608c-6.078,0-11.006,4.317-11.006,9.642s4.928,9.642,11.006,9.642
	c6.077,0,11.004-4.317,11.004-9.642S392.715,28.608,386.638,28.608z M386.638,45c-4.255,0-7.704-3.022-7.704-6.75
	c0-3.727,3.449-6.749,7.704-6.749c4.254,0,7.703,3.022,7.703,6.749C394.341,41.978,390.892,45,386.638,45z"/>
<path fill="#CCAB23" d="M386.638,57.346c-6.078,0-11.006,4.317-11.006,9.642s4.928,9.642,11.006,9.642
	c6.077,0,11.004-4.317,11.004-9.642S392.715,57.346,386.638,57.346z M386.638,73.737c-4.255,0-7.704-3.022-7.704-6.75
	c0-3.727,3.449-6.749,7.704-6.749c4.254,0,7.703,3.022,7.703,6.749C394.341,70.715,390.892,73.737,386.638,73.737z"/>
<path fill="#CCAB23" d="M417.458,64.655c-6.078,0-11.006,4.317-11.006,9.642s4.928,9.642,11.006,9.642
	c6.077,0,11.004-4.317,11.004-9.642S423.535,64.655,417.458,64.655z M417.458,81.046c-4.255,0-7.704-3.022-7.704-6.75
	c0-3.727,3.449-6.749,7.704-6.749c4.254,0,7.703,3.022,7.703,6.749C425.161,78.024,421.712,81.046,417.458,81.046z"/>
<path fill="#CCAB23" d="M417.458,93.393c-6.078,0-11.006,4.317-11.006,9.642s4.928,9.642,11.006,9.642
	c6.077,0,11.004-4.317,11.004-9.642S423.535,93.393,417.458,93.393z M417.458,109.784c-4.255,0-7.704-3.022-7.704-6.75
	c0-3.727,3.449-6.749,7.704-6.749c4.254,0,7.703,3.022,7.703,6.749C425.161,106.762,421.712,109.784,417.458,109.784z"/>
<path fill="#CCAB23" d="M449.454,100.66c-6.078,0-11.006,4.317-11.006,9.642s4.928,9.642,11.006,9.642
	c6.077,0,11.004-4.317,11.004-9.642S455.531,100.66,449.454,100.66z M449.454,117.051c-4.255,0-7.704-3.022-7.704-6.75
	c0-3.727,3.449-6.749,7.704-6.749c4.254,0,7.703,3.022,7.703,6.749C457.157,114.029,453.708,117.051,449.454,117.051z"/>
<path fill="#CCAB23" d="M449.454,129.397c-6.078,0-11.006,4.317-11.006,9.642s4.928,9.642,11.006,9.642
	c6.077,0,11.004-4.317,11.004-9.642S455.531,129.397,449.454,129.397z M449.454,145.789c-4.255,0-7.704-3.022-7.704-6.75
	c0-3.727,3.449-6.749,7.704-6.749c4.254,0,7.703,3.022,7.703,6.749C457.157,142.767,453.708,145.789,449.454,145.789z"/>
<path fill="#CCAB23" d="M481.45,139.039c-6.078,0-11.006,4.317-11.006,9.642s4.928,9.642,11.006,9.642
	c6.077,0,11.004-4.317,11.004-9.642S487.527,139.039,481.45,139.039z M481.45,155.43c-4.255,0-7.704-3.022-7.704-6.75
	c0-3.727,3.449-6.749,7.704-6.749c4.254,0,7.703,3.022,7.703,6.749C489.153,152.408,485.704,155.43,481.45,155.43z"/>
<path fill="#CCAB23" d="M481.45,167.777c-6.078,0-11.006,4.317-11.006,9.642s4.928,9.642,11.006,9.642
	c6.077,0,11.004-4.317,11.004-9.642S487.527,167.777,481.45,167.777z M481.45,184.168c-4.255,0-7.704-3.022-7.704-6.75
	c0-3.727,3.449-6.749,7.704-6.749c4.254,0,7.703,3.022,7.703,6.749C489.153,181.146,485.704,184.168,481.45,184.168z"/>
<path fill="#CCAB23" d="M514.996,175.686c-6.078,0-11.006,4.317-11.006,9.642s4.928,9.642,11.006,9.642
	c6.077,0,11.004-4.317,11.004-9.642S521.073,175.686,514.996,175.686z M514.996,192.077c-4.255,0-7.704-3.022-7.704-6.75
	c0-3.727,3.449-6.749,7.704-6.749c4.254,0,7.703,3.022,7.703,6.749C522.699,189.055,519.25,192.077,514.996,192.077z"/>
<path fill="#CCAB23" d="M514.996,204.423c-6.078,0-11.006,4.317-11.006,9.642s4.928,9.642,11.006,9.642
	c6.077,0,11.004-4.317,11.004-9.642S521.073,204.423,514.996,204.423z M514.996,220.814c-4.255,0-7.704-3.022-7.704-6.75
	c0-3.727,3.449-6.749,7.704-6.749c4.254,0,7.703,3.022,7.703,6.749C522.699,217.792,519.25,220.814,514.996,220.814z"/>
<path fill="#CCAB23" d="M550.496,211.491c-6.078,0-11.006,4.317-11.006,9.642s4.928,9.642,11.006,9.642
	c6.077,0,11.004-4.317,11.004-9.642S556.573,211.491,550.496,211.491z M550.496,227.882c-4.255,0-7.704-3.022-7.704-6.75
	c0-3.727,3.449-6.749,7.704-6.749c4.254,0,7.703,3.022,7.703,6.749C558.199,224.86,554.75,227.882,550.496,227.882z"/>
<path fill="#CCAB23" d="M550.496,240.229c-6.078,0-11.006,4.317-11.006,9.642c0,5.325,4.928,9.642,11.006,9.642
	c6.077,0,11.004-4.316,11.004-9.642C561.5,244.545,556.573,240.229,550.496,240.229z M550.496,256.619
	c-4.255,0-7.704-3.021-7.704-6.749c0-3.727,3.449-6.749,7.704-6.749c4.254,0,7.703,3.022,7.703,6.749
	C558.199,253.598,554.75,256.619,550.496,256.619z"/>
<path fill="#CCAB23" d="M579.716,240.229c-6.078,0-11.006,4.317-11.006,9.642c0,5.325,4.928,9.642,11.006,9.642
	c6.077,0,11.004-4.316,11.004-9.642C590.72,244.545,585.793,240.229,579.716,240.229z M579.716,256.619
	c-4.255,0-7.704-3.021-7.704-6.749c0-3.727,3.449-6.749,7.704-6.749c4.254,0,7.703,3.022,7.703,6.749
	C587.419,253.598,583.97,256.619,579.716,256.619z"/>
<path fill="#CCAB23" d="M550.496,272.199c-6.078,0-11.006,4.316-11.006,9.642s4.928,9.642,11.006,9.642
	c6.077,0,11.004-4.316,11.004-9.642S556.573,272.199,550.496,272.199z M550.496,288.59c-4.255,0-7.704-3.021-7.704-6.749
	s3.449-6.749,7.704-6.749c4.254,0,7.703,3.021,7.703,6.749S554.75,288.59,550.496,288.59z"/>
<path fill="#CCAB23" d="M514.996,276.986c-6.078,0-11.006,4.317-11.006,9.643c0,5.324,4.928,9.641,11.006,9.641
	c6.077,0,11.004-4.316,11.004-9.641C526,281.304,521.073,276.986,514.996,276.986z M514.996,293.378
	c-4.255,0-7.704-3.022-7.704-6.749c0-3.728,3.449-6.75,7.704-6.75c4.254,0,7.703,3.022,7.703,6.75
	C522.699,290.355,519.25,293.378,514.996,293.378z"/>
<path fill="#CCAB23" d="M514.996,305.725c-6.078,0-11.006,4.316-11.006,9.642s4.928,9.642,11.006,9.642
	c6.077,0,11.004-4.316,11.004-9.642S521.073,305.725,514.996,305.725z M514.996,322.115c-4.255,0-7.704-3.021-7.704-6.749
	s3.449-6.749,7.704-6.749c4.254,0,7.703,3.021,7.703,6.749S519.25,322.115,514.996,322.115z"/>
<path fill="#CCAB23" d="M481.45,311.703c-6.078,0-11.006,4.316-11.006,9.641c0,5.325,4.928,9.643,11.006,9.643
	c6.077,0,11.004-4.317,11.004-9.643C492.454,316.02,487.527,311.703,481.45,311.703z M481.45,328.094
	c-4.255,0-7.704-3.021-7.704-6.75c0-3.727,3.449-6.748,7.704-6.748c4.254,0,7.703,3.021,7.703,6.748
	C489.153,325.072,485.704,328.094,481.45,328.094z"/>
<path fill="#CCAB23" d="M481.45,340.44c-6.078,0-11.006,4.317-11.006,9.642s4.928,9.642,11.006,9.642
	c6.077,0,11.004-4.317,11.004-9.642S487.527,340.44,481.45,340.44z M481.45,356.832c-4.255,0-7.704-3.022-7.704-6.75
	c0-3.727,3.449-6.749,7.704-6.749c4.254,0,7.703,3.022,7.703,6.749C489.153,353.81,485.704,356.832,481.45,356.832z"/>
<path fill="#CCAB23" d="M449.454,352.213c-6.078,0-11.006,4.317-11.006,9.643c0,5.324,4.928,9.641,11.006,9.641
	c6.077,0,11.004-4.316,11.004-9.641C460.458,356.53,455.531,352.213,449.454,352.213z M449.454,368.604
	c-4.255,0-7.704-3.022-7.704-6.749c0-3.728,3.449-6.75,7.704-6.75c4.254,0,7.703,3.022,7.703,6.75
	C457.157,365.582,453.708,368.604,449.454,368.604z"/>
<path fill="#CCAB23" d="M449.454,380.951c-6.078,0-11.006,4.316-11.006,9.642s4.928,9.642,11.006,9.642
	c6.077,0,11.004-4.316,11.004-9.642S455.531,380.951,449.454,380.951z M449.454,397.342c-4.255,0-7.704-3.021-7.704-6.749
	s3.449-6.749,7.704-6.749c4.254,0,7.703,3.021,7.703,6.749S453.708,397.342,449.454,397.342z"/>
<path fill="#CCAB23" d="M417.458,388.018c-6.078,0-11.006,4.316-11.006,9.641c0,5.325,4.928,9.643,11.006,9.643
	c6.077,0,11.004-4.317,11.004-9.643C428.462,392.334,423.535,388.018,417.458,388.018z M417.458,404.408
	c-4.255,0-7.704-3.021-7.704-6.75c0-3.727,3.449-6.748,7.704-6.748c4.254,0,7.703,3.021,7.703,6.748
	C425.161,401.387,421.712,404.408,417.458,404.408z"/>
<path fill="#CCAB23" d="M417.458,416.755c-6.078,0-11.006,4.317-11.006,9.642s4.928,9.642,11.006,9.642
	c6.077,0,11.004-4.317,11.004-9.642S423.535,416.755,417.458,416.755z M417.458,433.146c-4.255,0-7.704-3.022-7.704-6.75
	c0-3.727,3.449-6.749,7.704-6.749c4.254,0,7.703,3.022,7.703,6.749C425.161,430.124,421.712,433.146,417.458,433.146z"/>
<path fill="#CCAB23" d="M51.116,9.325c-6.078,0-11.005,4.317-11.005,9.642s4.927,9.642,11.005,9.642s11.005-4.317,11.005-9.642
	S57.194,9.325,51.116,9.325z M51.116,25.716c-4.254,0-7.704-3.022-7.704-6.75c0-3.727,3.449-6.749,7.704-6.749
	s7.703,3.022,7.703,6.749C58.819,22.694,55.371,25.716,51.116,25.716z"/>
<path fill="#CCAB23" d="M51.116,38.063c-6.078,0-11.005,4.317-11.005,9.642s4.927,9.642,11.005,9.642s11.005-4.317,11.005-9.642
	S57.194,38.063,51.116,38.063z M51.116,54.454c-4.254,0-7.704-3.022-7.704-6.75c0-3.727,3.449-6.749,7.704-6.749
	s7.703,3.022,7.703,6.749C58.819,51.432,55.371,54.454,51.116,54.454z"/>
<path fill="#CCAB23" d="M102.394,9.325c-6.078,0-11.005,4.317-11.005,9.642s4.927,9.642,11.005,9.642s11.005-4.317,11.005-9.642
	S108.472,9.325,102.394,9.325z M102.394,25.716c-4.254,0-7.704-3.022-7.704-6.75c0-3.727,3.449-6.749,7.704-6.749
	s7.703,3.022,7.703,6.749C110.097,22.694,106.648,25.716,102.394,25.716z"/>
<path fill="#CCAB23" d="M102.394,38.063c-6.078,0-11.005,4.317-11.005,9.642s4.927,9.642,11.005,9.642s11.005-4.317,11.005-9.642
	S108.472,38.063,102.394,38.063z M102.394,54.454c-4.254,0-7.704-3.022-7.704-6.75c0-3.727,3.449-6.749,7.704-6.749
	s7.703,3.022,7.703,6.749C110.097,51.432,106.648,54.454,102.394,54.454z"/>
<path fill="#CCAB23" d="M153.672,9.325c-6.078,0-11.005,4.317-11.005,9.642s4.927,9.642,11.005,9.642s11.005-4.317,11.005-9.642
	S159.75,9.325,153.672,9.325z M153.672,25.716c-4.254,0-7.704-3.022-7.704-6.75c0-3.727,3.449-6.749,7.704-6.749
	s7.703,3.022,7.703,6.749C161.375,22.694,157.926,25.716,153.672,25.716z"/>
<path fill="#CCAB23" d="M153.672,38.063c-6.078,0-11.005,4.317-11.005,9.642s4.927,9.642,11.005,9.642s11.005-4.317,11.005-9.642
	S159.75,38.063,153.672,38.063z M153.672,54.454c-4.254,0-7.704-3.022-7.704-6.75c0-3.727,3.449-6.749,7.704-6.749
	s7.703,3.022,7.703,6.749C161.375,51.432,157.926,54.454,153.672,54.454z"/>
<path fill="#CCAB23" d="M204.95,9.325c-6.078,0-11.005,4.317-11.005,9.642s4.927,9.642,11.005,9.642s11.005-4.317,11.005-9.642
	S211.027,9.325,204.95,9.325z M204.95,25.716c-4.254,0-7.704-3.022-7.704-6.75c0-3.727,3.449-6.749,7.704-6.749
	s7.703,3.022,7.703,6.749C212.653,22.694,209.204,25.716,204.95,25.716z"/>
<path fill="#CCAB23" d="M204.95,38.063c-6.078,0-11.005,4.317-11.005,9.642s4.927,9.642,11.005,9.642s11.005-4.317,11.005-9.642
	S211.027,38.063,204.95,38.063z M204.95,54.454c-4.254,0-7.704-3.022-7.704-6.75c0-3.727,3.449-6.749,7.704-6.749
	s7.703,3.022,7.703,6.749C212.653,51.432,209.204,54.454,204.95,54.454z"/>
<path fill="#CCAB23" d="M256.228,9.325c-6.078,0-11.005,4.317-11.005,9.642s4.927,9.642,11.005,9.642s11.005-4.317,11.005-9.642
	S262.305,9.325,256.228,9.325z M256.228,25.716c-4.254,0-7.704-3.022-7.704-6.75c0-3.727,3.449-6.749,7.704-6.749
	s7.703,3.022,7.703,6.749C263.931,22.694,260.482,25.716,256.228,25.716z"/>
<path fill="#CCAB23" d="M256.228,38.063c-6.078,0-11.005,4.317-11.005,9.642s4.927,9.642,11.005,9.642s11.005-4.317,11.005-9.642
	S262.305,38.063,256.228,38.063z M256.228,54.454c-4.254,0-7.704-3.022-7.704-6.75c0-3.727,3.449-6.749,7.704-6.749
	s7.703,3.022,7.703,6.749C263.931,51.432,260.482,54.454,256.228,54.454z"/>
<path fill="#CCAB23" d="M307.506,9.325c-6.078,0-11.005,4.317-11.005,9.642s4.927,9.642,11.005,9.642
	c6.077,0,11.004-4.317,11.004-9.642S313.583,9.325,307.506,9.325z M307.506,25.716c-4.255,0-7.704-3.022-7.704-6.75
	c0-3.727,3.449-6.749,7.704-6.749c4.254,0,7.703,3.022,7.703,6.749C315.209,22.694,311.76,25.716,307.506,25.716z"/>
<path fill="#CCAB23" d="M307.506,38.063c-6.078,0-11.005,4.317-11.005,9.642s4.927,9.642,11.005,9.642
	c6.077,0,11.004-4.317,11.004-9.642S313.583,38.063,307.506,38.063z M307.506,54.454c-4.255,0-7.704-3.022-7.704-6.75
	c0-3.727,3.449-6.749,7.704-6.749c4.254,0,7.703,3.022,7.703,6.749C315.209,51.432,311.76,54.454,307.506,54.454z"/>
<path fill="#CCAB23" d="M358.783,9.325c-6.078,0-11.005,4.317-11.005,9.642s4.927,9.642,11.005,9.642s11.004-4.317,11.004-9.642
	S364.861,9.325,358.783,9.325z M358.783,25.716c-4.254,0-7.703-3.022-7.703-6.75c0-3.727,3.449-6.749,7.703-6.749
	s7.703,3.022,7.703,6.749C366.486,22.694,363.037,25.716,358.783,25.716z"/>
<path fill="#CCAB23" d="M358.783,38.063c-6.078,0-11.005,4.317-11.005,9.642s4.927,9.642,11.005,9.642s11.004-4.317,11.004-9.642
	S364.861,38.063,358.783,38.063z M358.783,54.454c-4.254,0-7.703-3.022-7.703-6.75c0-3.727,3.449-6.749,7.703-6.749
	s7.703,3.022,7.703,6.749C366.486,51.432,363.037,54.454,358.783,54.454z"/>
<path fill="#CCAB23" d="M0,471.61v2.892c4.179,0.076,7.542,3.063,7.542,6.743c0,3.679-3.363,6.666-7.542,6.742v2.893
	c6.002-0.077,10.843-4.358,10.843-9.635S6.002,471.688,0,471.61z"/>
<path fill="#CCAB23" d="M0,442.873v2.892c4.179,0.076,7.542,3.063,7.542,6.742c0,3.68-3.363,6.667-7.542,6.743v2.893
	c6.002-0.077,10.843-4.358,10.843-9.636C10.843,447.23,6.002,442.95,0,442.873z"/>
<path fill="#CCAB23" d="M36.506,461.962c0-5.324-4.927-9.642-11.005-9.642s-11.005,4.317-11.005,9.642s4.927,9.642,11.005,9.642
	S36.506,467.286,36.506,461.962z M33.205,461.962c0,3.727-3.449,6.749-7.703,6.749s-7.704-3.022-7.704-6.749
	c0-3.728,3.449-6.75,7.704-6.75S33.205,458.234,33.205,461.962z"/>
<path fill="#CCAB23" d="M36.506,433.224c0-5.324-4.927-9.641-11.005-9.641s-11.005,4.316-11.005,9.641
	c0,5.325,4.927,9.643,11.005,9.643S36.506,438.549,36.506,433.224z M33.205,433.224c0,3.728-3.449,6.75-7.703,6.75
	s-7.704-3.022-7.704-6.75c0-3.727,3.449-6.749,7.704-6.749S33.205,429.497,33.205,433.224z"/>
<path fill="#CCAB23" d="M88.097,461.962c0-5.324-4.927-9.642-11.005-9.642s-11.005,4.317-11.005,9.642s4.927,9.642,11.005,9.642
	S88.097,467.286,88.097,461.962z M84.795,461.962c0,3.727-3.449,6.749-7.703,6.749s-7.704-3.022-7.704-6.749
	c0-3.728,3.449-6.75,7.704-6.75S84.795,458.234,84.795,461.962z"/>
<path fill="#CCAB23" d="M88.097,433.224c0-5.324-4.927-9.641-11.005-9.641s-11.005,4.316-11.005,9.641
	c0,5.325,4.927,9.643,11.005,9.643S88.097,438.549,88.097,433.224z M84.795,433.224c0,3.728-3.449,6.75-7.703,6.75
	s-7.704-3.022-7.704-6.75c0-3.727,3.449-6.749,7.704-6.749S84.795,429.497,84.795,433.224z"/>
<path fill="#CCAB23" d="M139.688,461.962c0-5.324-4.927-9.642-11.005-9.642s-11.005,4.317-11.005,9.642s4.927,9.642,11.005,9.642
	S139.688,467.286,139.688,461.962z M136.386,461.962c0,3.727-3.449,6.749-7.703,6.749s-7.704-3.022-7.704-6.749
	c0-3.728,3.449-6.75,7.704-6.75S136.386,458.234,136.386,461.962z"/>
<path fill="#CCAB23" d="M139.688,433.224c0-5.324-4.927-9.641-11.005-9.641s-11.005,4.316-11.005,9.641
	c0,5.325,4.927,9.643,11.005,9.643S139.688,438.549,139.688,433.224z M136.386,433.224c0,3.728-3.449,6.75-7.703,6.75
	s-7.704-3.022-7.704-6.75c0-3.727,3.449-6.749,7.704-6.749S136.386,429.497,136.386,433.224z"/>
<path fill="#CCAB23" d="M191.279,461.962c0-5.324-4.927-9.642-11.005-9.642s-11.005,4.317-11.005,9.642s4.927,9.642,11.005,9.642
	S191.279,467.286,191.279,461.962z M187.977,461.962c0,3.727-3.449,6.749-7.703,6.749s-7.704-3.022-7.704-6.749
	c0-3.728,3.449-6.75,7.704-6.75S187.977,458.234,187.977,461.962z"/>
<path fill="#CCAB23" d="M191.279,433.224c0-5.324-4.927-9.641-11.005-9.641s-11.005,4.316-11.005,9.641
	c0,5.325,4.927,9.643,11.005,9.643S191.279,438.549,191.279,433.224z M187.977,433.224c0,3.728-3.449,6.75-7.703,6.75
	s-7.704-3.022-7.704-6.75c0-3.727,3.449-6.749,7.704-6.749S187.977,429.497,187.977,433.224z"/>
<path fill="#CCAB23" d="M242.87,461.962c0-5.324-4.927-9.642-11.005-9.642s-11.005,4.317-11.005,9.642s4.927,9.642,11.005,9.642
	S242.87,467.286,242.87,461.962z M239.568,461.962c0,3.727-3.449,6.749-7.703,6.749s-7.704-3.022-7.704-6.749
	c0-3.728,3.449-6.75,7.704-6.75S239.568,458.234,239.568,461.962z"/>
<path fill="#CCAB23" d="M242.87,433.224c0-5.324-4.927-9.641-11.005-9.641s-11.005,4.316-11.005,9.641
	c0,5.325,4.927,9.643,11.005,9.643S242.87,438.549,242.87,433.224z M239.568,433.224c0,3.728-3.449,6.75-7.703,6.75
	s-7.704-3.022-7.704-6.75c0-3.727,3.449-6.749,7.704-6.749S239.568,429.497,239.568,433.224z"/>
<path fill="#CCAB23" d="M294.46,461.962c0-5.324-4.927-9.642-11.005-9.642s-11.005,4.317-11.005,9.642s4.927,9.642,11.005,9.642
	S294.46,467.286,294.46,461.962z M291.159,461.962c0,3.727-3.449,6.749-7.703,6.749s-7.704-3.022-7.704-6.749
	c0-3.728,3.449-6.75,7.704-6.75S291.159,458.234,291.159,461.962z"/>
<path fill="#CCAB23" d="M294.46,433.224c0-5.324-4.927-9.641-11.005-9.641s-11.005,4.316-11.005,9.641
	c0,5.325,4.927,9.643,11.005,9.643S294.46,438.549,294.46,433.224z M291.159,433.224c0,3.728-3.449,6.75-7.703,6.75
	s-7.704-3.022-7.704-6.75c0-3.727,3.449-6.749,7.704-6.749S291.159,429.497,291.159,433.224z"/>
<path fill="#CCAB23" d="M346.051,461.962c0-5.324-4.927-9.642-11.004-9.642c-6.078,0-11.006,4.317-11.006,9.642
	s4.928,9.642,11.006,9.642C341.124,471.604,346.051,467.286,346.051,461.962z M342.75,461.962c0,3.727-3.449,6.749-7.703,6.749
	c-4.255,0-7.704-3.022-7.704-6.749c0-3.728,3.449-6.75,7.704-6.75C339.301,455.212,342.75,458.234,342.75,461.962z"/>
<path fill="#CCAB23" d="M346.051,433.224c0-5.324-4.927-9.641-11.004-9.641c-6.078,0-11.006,4.316-11.006,9.641
	c0,5.325,4.928,9.643,11.006,9.643C341.124,442.866,346.051,438.549,346.051,433.224z M342.75,433.224
	c0,3.728-3.449,6.75-7.703,6.75c-4.255,0-7.704-3.022-7.704-6.75c0-3.727,3.449-6.749,7.704-6.749
	C339.301,426.475,342.75,429.497,342.75,433.224z"/>
<path fill="#CCAB23" d="M397.642,461.962c0-5.324-4.927-9.642-11.004-9.642c-6.078,0-11.006,4.317-11.006,9.642
	s4.928,9.642,11.006,9.642C392.715,471.604,397.642,467.286,397.642,461.962z M394.341,461.962c0,3.727-3.449,6.749-7.703,6.749
	c-4.255,0-7.704-3.022-7.704-6.749c0-3.728,3.449-6.75,7.704-6.75C390.892,455.212,394.341,458.234,394.341,461.962z"/>
<path fill="#CCAB23" d="M397.642,433.224c0-5.324-4.927-9.641-11.004-9.641c-6.078,0-11.006,4.316-11.006,9.641
	c0,5.325,4.928,9.643,11.006,9.643C392.715,442.866,397.642,438.549,397.642,433.224z M394.341,433.224
	c0,3.728-3.449,6.75-7.703,6.75c-4.255,0-7.704-3.022-7.704-6.75c0-3.727,3.449-6.749,7.704-6.749
	C390.892,426.475,394.341,429.497,394.341,433.224z"/>
<path fill="#CCAB23" d="M62.121,481.245c0-5.324-4.927-9.642-11.005-9.642s-11.005,4.317-11.005,9.642s4.927,9.642,11.005,9.642
	S62.121,486.569,62.121,481.245z M58.819,481.245c0,3.727-3.449,6.749-7.703,6.749s-7.704-3.022-7.704-6.749
	c0-3.728,3.449-6.75,7.704-6.75S58.819,477.518,58.819,481.245z"/>
<path fill="#CCAB23" d="M62.121,452.507c0-5.324-4.927-9.641-11.005-9.641s-11.005,4.316-11.005,9.641
	c0,5.325,4.927,9.643,11.005,9.643S62.121,457.832,62.121,452.507z M58.819,452.507c0,3.728-3.449,6.75-7.703,6.75
	s-7.704-3.022-7.704-6.75c0-3.727,3.449-6.749,7.704-6.749S58.819,448.78,58.819,452.507z"/>
<path fill="#CCAB23" d="M113.399,481.245c0-5.324-4.927-9.642-11.005-9.642s-11.005,4.317-11.005,9.642s4.927,9.642,11.005,9.642
	S113.399,486.569,113.399,481.245z M110.097,481.245c0,3.727-3.449,6.749-7.703,6.749s-7.704-3.022-7.704-6.749
	c0-3.728,3.449-6.75,7.704-6.75S110.097,477.518,110.097,481.245z"/>
<path fill="#CCAB23" d="M113.399,452.507c0-5.324-4.927-9.641-11.005-9.641s-11.005,4.316-11.005,9.641
	c0,5.325,4.927,9.643,11.005,9.643S113.399,457.832,113.399,452.507z M110.097,452.507c0,3.728-3.449,6.75-7.703,6.75
	s-7.704-3.022-7.704-6.75c0-3.727,3.449-6.749,7.704-6.749S110.097,448.78,110.097,452.507z"/>
<path fill="#CCAB23" d="M164.677,481.245c0-5.324-4.927-9.642-11.005-9.642s-11.005,4.317-11.005,9.642s4.927,9.642,11.005,9.642
	S164.677,486.569,164.677,481.245z M161.375,481.245c0,3.727-3.449,6.749-7.703,6.749s-7.704-3.022-7.704-6.749
	c0-3.728,3.449-6.75,7.704-6.75S161.375,477.518,161.375,481.245z"/>
<path fill="#CCAB23" d="M164.677,452.507c0-5.324-4.927-9.641-11.005-9.641s-11.005,4.316-11.005,9.641
	c0,5.325,4.927,9.643,11.005,9.643S164.677,457.832,164.677,452.507z M161.375,452.507c0,3.728-3.449,6.75-7.703,6.75
	s-7.704-3.022-7.704-6.75c0-3.727,3.449-6.749,7.704-6.749S161.375,448.78,161.375,452.507z"/>
<path fill="#CCAB23" d="M215.955,481.245c0-5.324-4.927-9.642-11.005-9.642s-11.005,4.317-11.005,9.642s4.927,9.642,11.005,9.642
	S215.955,486.569,215.955,481.245z M212.653,481.245c0,3.727-3.449,6.749-7.703,6.749s-7.704-3.022-7.704-6.749
	c0-3.728,3.449-6.75,7.704-6.75S212.653,477.518,212.653,481.245z"/>
<path fill="#CCAB23" d="M215.955,452.507c0-5.324-4.927-9.641-11.005-9.641s-11.005,4.316-11.005,9.641
	c0,5.325,4.927,9.643,11.005,9.643S215.955,457.832,215.955,452.507z M212.653,452.507c0,3.728-3.449,6.75-7.703,6.75
	s-7.704-3.022-7.704-6.75c0-3.727,3.449-6.749,7.704-6.749S212.653,448.78,212.653,452.507z"/>
<path fill="#CCAB23" d="M267.232,481.245c0-5.324-4.927-9.642-11.005-9.642s-11.005,4.317-11.005,9.642s4.927,9.642,11.005,9.642
	S267.232,486.569,267.232,481.245z M263.931,481.245c0,3.727-3.449,6.749-7.703,6.749s-7.704-3.022-7.704-6.749
	c0-3.728,3.449-6.75,7.704-6.75S263.931,477.518,263.931,481.245z"/>
<path fill="#CCAB23" d="M267.232,452.507c0-5.324-4.927-9.641-11.005-9.641s-11.005,4.316-11.005,9.641
	c0,5.325,4.927,9.643,11.005,9.643S267.232,457.832,267.232,452.507z M263.931,452.507c0,3.728-3.449,6.75-7.703,6.75
	s-7.704-3.022-7.704-6.75c0-3.727,3.449-6.749,7.704-6.749S263.931,448.78,263.931,452.507z"/>
<path fill="#CCAB23" d="M318.51,481.245c0-5.324-4.927-9.642-11.004-9.642c-6.078,0-11.005,4.317-11.005,9.642
	s4.927,9.642,11.005,9.642C313.583,490.887,318.51,486.569,318.51,481.245z M315.209,481.245c0,3.727-3.449,6.749-7.703,6.749
	c-4.255,0-7.704-3.022-7.704-6.749c0-3.728,3.449-6.75,7.704-6.75C311.76,474.495,315.209,477.518,315.209,481.245z"/>
<path fill="#CCAB23" d="M318.51,452.507c0-5.324-4.927-9.641-11.004-9.641c-6.078,0-11.005,4.316-11.005,9.641
	c0,5.325,4.927,9.643,11.005,9.643C313.583,462.149,318.51,457.832,318.51,452.507z M315.209,452.507c0,3.728-3.449,6.75-7.703,6.75
	c-4.255,0-7.704-3.022-7.704-6.75c0-3.727,3.449-6.749,7.704-6.749C311.76,445.758,315.209,448.78,315.209,452.507z"/>
<path fill="#CCAB23" d="M369.787,481.245c0-5.324-4.926-9.642-11.004-9.642s-11.005,4.317-11.005,9.642s4.927,9.642,11.005,9.642
	S369.787,486.569,369.787,481.245z M366.486,481.245c0,3.727-3.449,6.749-7.703,6.749s-7.703-3.022-7.703-6.749
	c0-3.728,3.449-6.75,7.703-6.75S366.486,477.518,366.486,481.245z"/>
<path fill="#CCAB23" d="M369.787,452.507c0-5.324-4.926-9.641-11.004-9.641s-11.005,4.316-11.005,9.641
	c0,5.325,4.927,9.643,11.005,9.643S369.787,457.832,369.787,452.507z M366.486,452.507c0,3.728-3.449,6.75-7.703,6.75
	s-7.703-3.022-7.703-6.75c0-3.727,3.449-6.749,7.703-6.749S366.486,448.78,366.486,452.507z"/>
<g>
	<polygon fill="#E74001" points="376,67 0,67 0,433 376,433 535,250 	"/>
	<path fill="#D8BA25" d="M49,75.474c0,0-20,12.5,0,33C69,87.974,49,75.474,49,75.474z M49,80.024c0,0,14.485,9.053,0,23.9
		C34.515,89.077,49,80.024,49,80.024z"/>
	<path fill="#D8BA25" d="M49,115.48c0,0-20,12.5,0,33C69,127.98,49,115.48,49,115.48z M49,120.031c0,0,14.485,9.053,0,23.9
		C34.515,129.084,49,120.031,49,120.031z"/>
	<path fill="#D8BA25" d="M49,155.487c0,0-20,12.5,0,33C69,167.987,49,155.487,49,155.487z M49,160.038c0,0,14.485,9.053,0,23.9
		C34.515,169.091,49,160.038,49,160.038z"/>
	<path fill="#D8BA25" d="M49,195.494c0,0-20,12.5,0,33C69,207.994,49,195.494,49,195.494z M49,200.044c0,0,14.485,9.053,0,23.9
		C34.515,209.098,49,200.044,49,200.044z"/>
	<path fill="#D8BA25" d="M49,235.501c0,0-20,12.5,0,33C69,248.001,49,235.501,49,235.501z M49,240.051c0,0,14.485,9.053,0,23.9
		C34.515,249.104,49,240.051,49,240.051z"/>
	<path fill="#D8BA25" d="M49,275.508c0,0-20,12.5,0,33C69,288.008,49,275.508,49,275.508z M49,280.058c0,0,14.485,9.054,0,23.9
		C34.515,289.111,49,280.058,49,280.058z"/>
	<path fill="#D8BA25" d="M49,315.515c0,0-20,12.5,0,33C69,328.015,49,315.515,49,315.515z M49,320.064c0,0,14.485,9.054,0,23.9
		C34.515,329.118,49,320.064,49,320.064z"/>
	<path fill="#D8BA25" d="M49,355.521c0,0-20,12.5,0,33C69,368.021,49,355.521,49,355.521z M49,360.071c0,0,14.485,9.054,0,23.9
		C34.515,369.125,49,360.071,49,360.071z"/>
	<path fill="#D8BA25" d="M49,395.528c0,0-20,12.5,0,33C69,408.028,49,395.528,49,395.528z M49,400.078c0,0,14.485,9.054,0,23.9
		C34.515,409.132,49,400.078,49,400.078z"/>
	<path fill="#D8BA25" d="M88.097,84.115C81.084,76.927,80.868,71.102,82.505,67h-2.783c-1.429,5.501-0.233,12.841,8.375,21.665
		c8.609-8.824,9.804-16.164,8.375-21.665h-2.783C95.327,71.102,95.11,76.927,88.097,84.115z"/>
	<path fill="#D8BA25" d="M88.097,95.672c0,0-20,12.5,0,33C108.097,108.172,88.097,95.672,88.097,95.672z M88.097,100.222
		c0,0,14.485,9.053,0,23.9C73.612,109.275,88.097,100.222,88.097,100.222z"/>
	<path fill="#D8BA25" d="M88.097,135.679c0,0-20,12.5,0,33C108.097,148.179,88.097,135.679,88.097,135.679z M88.097,140.229
		c0,0,14.485,9.053,0,23.9C73.612,149.282,88.097,140.229,88.097,140.229z"/>
	<path fill="#D8BA25" d="M88.097,175.686c0,0-20,12.5,0,33C108.097,188.186,88.097,175.686,88.097,175.686z M88.097,180.236
		c0,0,14.485,9.053,0,23.9C73.612,189.289,88.097,180.236,88.097,180.236z"/>
	<path fill="#D8BA25" d="M88.097,215.692c0,0-20,12.5,0,33C108.097,228.192,88.097,215.692,88.097,215.692z M88.097,220.243
		c0,0,14.485,9.053,0,23.9C73.612,229.296,88.097,220.243,88.097,220.243z"/>
	<path fill="#D8BA25" d="M88.097,255.699c0,0-20,12.5,0,33C108.097,268.199,88.097,255.699,88.097,255.699z M88.097,260.25
		c0,0,14.485,9.053,0,23.9C73.612,269.303,88.097,260.25,88.097,260.25z"/>
	<path fill="#D8BA25" d="M88.097,295.707c0,0-20,12.5,0,33C108.097,308.207,88.097,295.707,88.097,295.707z M88.097,300.256
		c0,0,14.485,9.055,0,23.9C73.612,309.311,88.097,300.256,88.097,300.256z"/>
	<path fill="#D8BA25" d="M88.097,335.713c0,0-20,12.5,0,33C108.097,348.213,88.097,335.713,88.097,335.713z M88.097,340.264
		c0,0,14.485,9.053,0,23.9C73.612,349.316,88.097,340.264,88.097,340.264z"/>
	<path fill="#D8BA25" d="M88.097,375.721c0,0-20,12.5,0,33C108.097,388.221,88.097,375.721,88.097,375.721z M88.097,380.27
		c0,0,14.485,9.055,0,23.9C73.612,389.324,88.097,380.27,88.097,380.27z"/>
	<path fill="#D8BA25" d="M88.097,416.5c0,0-9.593,6-8.844,16.5h2.443c-0.542-7.604,6.401-11.951,6.401-11.951
		s6.943,4.347,6.401,11.951h2.443C97.69,422.5,88.097,416.5,88.097,416.5z"/>
	<path fill="#D8BA25" d="M250.255,84.115c-7.013-7.188-7.229-13.013-5.592-17.115h-2.783c-1.428,5.501-0.233,12.841,8.375,21.665
		c8.609-8.824,9.804-16.164,8.375-21.665h-2.783C257.484,71.102,257.268,76.927,250.255,84.115z"/>
	<path fill="#D8BA25" d="M250.255,95.672c0,0-20,12.5,0,33C270.255,108.172,250.255,95.672,250.255,95.672z M250.255,100.222
		c0,0,14.485,9.053,0,23.9C235.77,109.275,250.255,100.222,250.255,100.222z"/>
	<path fill="#D8BA25" d="M250.255,135.679c0,0-20,12.5,0,33C270.255,148.179,250.255,135.679,250.255,135.679z M250.255,140.229
		c0,0,14.485,9.053,0,23.9C235.77,149.282,250.255,140.229,250.255,140.229z"/>
	<path fill="#D8BA25" d="M250.255,175.686c0,0-20,12.5,0,33C270.255,188.186,250.255,175.686,250.255,175.686z M250.255,180.236
		c0,0,14.485,9.053,0,23.9C235.77,189.289,250.255,180.236,250.255,180.236z"/>
	<path fill="#D8BA25" d="M250.255,215.692c0,0-20,12.5,0,33C270.255,228.192,250.255,215.692,250.255,215.692z M250.255,220.243
		c0,0,14.485,9.053,0,23.9C235.77,229.296,250.255,220.243,250.255,220.243z"/>
	<path fill="#D8BA25" d="M250.255,255.699c0,0-20,12.5,0,33C270.255,268.199,250.255,255.699,250.255,255.699z M250.255,260.25
		c0,0,14.485,9.053,0,23.9C235.77,269.303,250.255,260.25,250.255,260.25z"/>
	<path fill="#D8BA25" d="M250.255,295.707c0,0-20,12.5,0,33C270.255,308.207,250.255,295.707,250.255,295.707z M250.255,300.256
		c0,0,14.485,9.055,0,23.9C235.77,309.311,250.255,300.256,250.255,300.256z"/>
	<path fill="#D8BA25" d="M250.255,335.713c0,0-20,12.5,0,33C270.255,348.213,250.255,335.713,250.255,335.713z M250.255,340.264
		c0,0,14.485,9.053,0,23.9C235.77,349.316,250.255,340.264,250.255,340.264z"/>
	<path fill="#D8BA25" d="M250.255,375.721c0,0-20,12.5,0,33C270.255,388.221,250.255,375.721,250.255,375.721z M250.255,380.27
		c0,0,14.485,9.055,0,23.9C235.77,389.324,250.255,380.27,250.255,380.27z"/>
	<path fill="#D8BA25" d="M250.255,416.5c0,0-9.593,6-8.844,16.5h2.442c-0.542-7.604,6.401-11.951,6.401-11.951
		s6.943,4.347,6.401,11.951h2.442C259.848,422.5,250.255,416.5,250.255,416.5z"/>
	<path fill="#D8BA25" d="M128.671,75.474c0,0-20,12.5,0,33C148.671,87.974,128.671,75.474,128.671,75.474z M128.671,80.024
		c0,0,14.485,9.053,0,23.9C114.186,89.077,128.671,80.024,128.671,80.024z"/>
	<path fill="#D8BA25" d="M128.671,115.48c0,0-20,12.5,0,33C148.671,127.98,128.671,115.48,128.671,115.48z M128.671,120.031
		c0,0,14.485,9.053,0,23.9C114.186,129.084,128.671,120.031,128.671,120.031z"/>
	<path fill="#D8BA25" d="M128.671,155.487c0,0-20,12.5,0,33C148.671,167.987,128.671,155.487,128.671,155.487z M128.671,160.038
		c0,0,14.485,9.053,0,23.9C114.186,169.091,128.671,160.038,128.671,160.038z"/>
	<path fill="#D8BA25" d="M128.671,195.494c0,0-20,12.5,0,33C148.671,207.994,128.671,195.494,128.671,195.494z M128.671,200.044
		c0,0,14.485,9.053,0,23.9C114.186,209.098,128.671,200.044,128.671,200.044z"/>
	<path fill="#D8BA25" d="M128.671,235.501c0,0-20,12.5,0,33C148.671,248.001,128.671,235.501,128.671,235.501z M128.671,240.051
		c0,0,14.485,9.053,0,23.9C114.186,249.104,128.671,240.051,128.671,240.051z"/>
	<path fill="#D8BA25" d="M128.671,275.508c0,0-20,12.5,0,33C148.671,288.008,128.671,275.508,128.671,275.508z M128.671,280.058
		c0,0,14.485,9.054,0,23.9C114.186,289.111,128.671,280.058,128.671,280.058z"/>
	<path fill="#D8BA25" d="M128.671,315.515c0,0-20,12.5,0,33C148.671,328.015,128.671,315.515,128.671,315.515z M128.671,320.064
		c0,0,14.485,9.054,0,23.9C114.186,329.118,128.671,320.064,128.671,320.064z"/>
	<path fill="#D8BA25" d="M128.671,355.521c0,0-20,12.5,0,33C148.671,368.021,128.671,355.521,128.671,355.521z M128.671,360.071
		c0,0,14.485,9.054,0,23.9C114.186,369.125,128.671,360.071,128.671,360.071z"/>
	<path fill="#D8BA25" d="M128.671,395.528c0,0-20,12.5,0,33C148.671,408.028,128.671,395.528,128.671,395.528z M128.671,400.078
		c0,0,14.485,9.054,0,23.9C114.186,409.132,128.671,400.078,128.671,400.078z"/>
	<path fill="#D8BA25" d="M208.342,75.474c0,0-20,12.5,0,33C228.342,87.974,208.342,75.474,208.342,75.474z M208.342,80.024
		c0,0,14.485,9.053,0,23.9C193.857,89.077,208.342,80.024,208.342,80.024z"/>
	<path fill="#D8BA25" d="M208.342,115.48c0,0-20,12.5,0,33C228.342,127.98,208.342,115.48,208.342,115.48z M208.342,120.031
		c0,0,14.485,9.053,0,23.9C193.857,129.084,208.342,120.031,208.342,120.031z"/>
	<path fill="#D8BA25" d="M208.342,155.487c0,0-20,12.5,0,33C228.342,167.987,208.342,155.487,208.342,155.487z M208.342,160.038
		c0,0,14.485,9.053,0,23.9C193.857,169.091,208.342,160.038,208.342,160.038z"/>
	<path fill="#D8BA25" d="M208.342,195.494c0,0-20,12.5,0,33C228.342,207.994,208.342,195.494,208.342,195.494z M208.342,200.044
		c0,0,14.485,9.053,0,23.9C193.857,209.098,208.342,200.044,208.342,200.044z"/>
	<path fill="#D8BA25" d="M208.342,235.501c0,0-20,12.5,0,33C228.342,248.001,208.342,235.501,208.342,235.501z M208.342,240.051
		c0,0,14.485,9.053,0,23.9C193.857,249.104,208.342,240.051,208.342,240.051z"/>
	<path fill="#D8BA25" d="M208.342,275.508c0,0-20,12.5,0,33C228.342,288.008,208.342,275.508,208.342,275.508z M208.342,280.058
		c0,0,14.485,9.054,0,23.9C193.857,289.111,208.342,280.058,208.342,280.058z"/>
	<path fill="#D8BA25" d="M208.342,315.515c0,0-20,12.5,0,33C228.342,328.015,208.342,315.515,208.342,315.515z M208.342,320.064
		c0,0,14.485,9.054,0,23.9C193.857,329.118,208.342,320.064,208.342,320.064z"/>
	<path fill="#D8BA25" d="M208.342,355.521c0,0-20,12.5,0,33C228.342,368.021,208.342,355.521,208.342,355.521z M208.342,360.071
		c0,0,14.485,9.054,0,23.9C193.857,369.125,208.342,360.071,208.342,360.071z"/>
	<path fill="#D8BA25" d="M208.342,395.528c0,0-20,12.5,0,33C228.342,408.028,208.342,395.528,208.342,395.528z M208.342,400.078
		c0,0,14.485,9.054,0,23.9C193.857,409.132,208.342,400.078,208.342,400.078z"/>
	<path fill="#D8BA25" d="M288.013,75.474c0,0-20,12.5,0,33C308.013,87.974,288.013,75.474,288.013,75.474z M288.013,80.024
		c0,0,14.485,9.053,0,23.9C273.528,89.077,288.013,80.024,288.013,80.024z"/>
	<path fill="#D8BA25" d="M288.013,115.48c0,0-20,12.5,0,33C308.013,127.98,288.013,115.48,288.013,115.48z M288.013,120.031
		c0,0,14.485,9.053,0,23.9C273.528,129.084,288.013,120.031,288.013,120.031z"/>
	<path fill="#D8BA25" d="M288.013,155.487c0,0-20,12.5,0,33C308.013,167.987,288.013,155.487,288.013,155.487z M288.013,160.038
		c0,0,14.485,9.053,0,23.9C273.528,169.091,288.013,160.038,288.013,160.038z"/>
	<path fill="#D8BA25" d="M288.013,195.494c0,0-20,12.5,0,33C308.013,207.994,288.013,195.494,288.013,195.494z M288.013,200.044
		c0,0,14.485,9.053,0,23.9C273.528,209.098,288.013,200.044,288.013,200.044z"/>
	<path fill="#D8BA25" d="M288.013,235.501c0,0-20,12.5,0,33C308.013,248.001,288.013,235.501,288.013,235.501z M288.013,240.051
		c0,0,14.485,9.053,0,23.9C273.528,249.104,288.013,240.051,288.013,240.051z"/>
	<path fill="#D8BA25" d="M288.013,275.508c0,0-20,12.5,0,33C308.013,288.008,288.013,275.508,288.013,275.508z M288.013,280.058
		c0,0,14.485,9.054,0,23.9C273.528,289.111,288.013,280.058,288.013,280.058z"/>
	<path fill="#D8BA25" d="M288.013,315.515c0,0-20,12.5,0,33C308.013,328.015,288.013,315.515,288.013,315.515z M288.013,320.064
		c0,0,14.485,9.054,0,23.9C273.528,329.118,288.013,320.064,288.013,320.064z"/>
	<path fill="#D8BA25" d="M288.013,355.521c0,0-20,12.5,0,33C308.013,368.021,288.013,355.521,288.013,355.521z M288.013,360.071
		c0,0,14.485,9.054,0,23.9C273.528,369.125,288.013,360.071,288.013,360.071z"/>
	<path fill="#D8BA25" d="M288.013,395.528c0,0-20,12.5,0,33C308.013,408.028,288.013,395.528,288.013,395.528z M288.013,400.078
		c0,0,14.485,9.054,0,23.9C273.528,409.132,288.013,400.078,288.013,400.078z"/>
	<path fill="#D8BA25" d="M367.684,91.974c0,0-20,12.5,0,33C387.684,104.474,367.684,91.974,367.684,91.974z M367.684,96.524
		c0,0,14.485,9.053,0,23.9C353.199,105.577,367.684,96.524,367.684,96.524z"/>
	<path fill="#D8BA25" d="M367.684,131.98c0,0-20,12.5,0,33C387.684,144.48,367.684,131.98,367.684,131.98z M367.684,136.531
		c0,0,14.485,9.053,0,23.9C353.199,145.584,367.684,136.531,367.684,136.531z"/>
	<path fill="#D8BA25" d="M367.684,171.987c0,0-20,12.5,0,33C387.684,184.487,367.684,171.987,367.684,171.987z M367.684,176.538
		c0,0,14.485,9.053,0,23.9C353.199,185.591,367.684,176.538,367.684,176.538z"/>
	<path fill="#D8BA25" d="M367.684,211.994c0,0-20,12.5,0,33C387.684,224.494,367.684,211.994,367.684,211.994z M367.684,216.544
		c0,0,14.485,9.053,0,23.9C353.199,225.598,367.684,216.544,367.684,216.544z"/>
	<path fill="#D8BA25" d="M367.684,252.001c0,0-20,12.5,0,33C387.684,264.501,367.684,252.001,367.684,252.001z M367.684,256.551
		c0,0,14.485,9.054,0,23.9C353.199,265.604,367.684,256.551,367.684,256.551z"/>
	<path fill="#D8BA25" d="M367.684,292.008c0,0-20,12.5,0,33C387.684,304.508,367.684,292.008,367.684,292.008z M367.684,296.558
		c0,0,14.485,9.054,0,23.9C353.199,305.611,367.684,296.558,367.684,296.558z"/>
	<path fill="#D8BA25" d="M367.684,332.015c0,0-20,12.5,0,33C387.684,344.515,367.684,332.015,367.684,332.015z M367.684,336.564
		c0,0,14.485,9.054,0,23.9C353.199,345.618,367.684,336.564,367.684,336.564z"/>
	<path fill="#D8BA25" d="M367.684,372.021c0,0-20,12.5,0,33C387.684,384.521,367.684,372.021,367.684,372.021z M367.684,376.571
		c0,0,14.485,9.054,0,23.9C353.199,385.625,367.684,376.571,367.684,376.571z"/>
	<path fill="#D8BA25" d="M408.568,131.98c0,0-20,12.5,0,33C428.568,144.48,408.568,131.98,408.568,131.98z M408.568,136.531
		c0,0,14.485,9.053,0,23.9C394.084,145.584,408.568,136.531,408.568,136.531z"/>
	<path fill="#D8BA25" d="M408.568,171.987c0,0-20,12.5,0,33C428.568,184.487,408.568,171.987,408.568,171.987z M408.568,176.538
		c0,0,14.485,9.053,0,23.9C394.084,185.591,408.568,176.538,408.568,176.538z"/>
	<path fill="#D8BA25" d="M408.568,211.994c0,0-20,12.5,0,33C428.568,224.494,408.568,211.994,408.568,211.994z M408.568,216.544
		c0,0,14.485,9.053,0,23.9C394.084,225.598,408.568,216.544,408.568,216.544z"/>
	<path fill="#D8BA25" d="M408.568,252.001c0,0-20,12.5,0,33C428.568,264.501,408.568,252.001,408.568,252.001z M408.568,256.551
		c0,0,14.485,9.054,0,23.9C394.084,265.604,408.568,256.551,408.568,256.551z"/>
	<path fill="#D8BA25" d="M408.568,292.008c0,0-20,12.5,0,33C428.568,304.508,408.568,292.008,408.568,292.008z M408.568,296.558
		c0,0,14.485,9.054,0,23.9C394.084,305.611,408.568,296.558,408.568,296.558z"/>
	<path fill="#D8BA25" d="M408.568,332.015c0,0-20,12.5,0,33C428.568,344.515,408.568,332.015,408.568,332.015z M408.568,336.564
		c0,0,14.485,9.054,0,23.9C394.084,345.618,408.568,336.564,408.568,336.564z"/>
	<path fill="#D8BA25" d="M449.453,171.987c0,0-20,12.5,0,33C469.453,184.487,449.453,171.987,449.453,171.987z M449.453,176.538
		c0,0,14.485,9.053,0,23.9C434.969,185.591,449.453,176.538,449.453,176.538z"/>
	<path fill="#D8BA25" d="M449.453,211.994c0,0-20,12.5,0,33C469.453,224.494,449.453,211.994,449.453,211.994z M449.453,216.544
		c0,0,14.485,9.053,0,23.9C434.969,225.598,449.453,216.544,449.453,216.544z"/>
	<path fill="#D8BA25" d="M449.453,252.001c0,0-20,12.5,0,33C469.453,264.501,449.453,252.001,449.453,252.001z M449.453,256.551
		c0,0,14.485,9.054,0,23.9C434.969,265.604,449.453,256.551,449.453,256.551z"/>
	<path fill="#D8BA25" d="M449.453,292.008c0,0-20,12.5,0,33C469.453,304.508,449.453,292.008,449.453,292.008z M449.453,296.558
		c0,0,14.485,9.054,0,23.9C434.969,305.611,449.453,296.558,449.453,296.558z"/>
	<path fill="#D8BA25" d="M490.338,211.994c0,0-20,12.5,0,33C510.338,224.494,490.338,211.994,490.338,211.994z M490.338,216.544
		c0,0,14.485,9.053,0,23.9C475.854,225.598,490.338,216.544,490.338,216.544z"/>
	<path fill="#D8BA25" d="M490.338,252.001c0,0-20,12.5,0,33C510.338,264.501,490.338,252.001,490.338,252.001z M490.338,256.551
		c0,0,14.485,9.054,0,23.9C475.854,265.604,490.338,256.551,490.338,256.551z"/>
	<path fill="#D8BA25" d="M183,93.862V87h-6.709l-5.33-5.33l-5.33,5.33H158v7.785l-4.677,4.676l4.677,4.677V111h6.709l5.33,5.33
		l5.33-5.33H183v-7.785l4.677-4.676L183,93.862z M179,101.95V107h-5.092l-3.73,3.731L166.446,107H162v-4.403l-3.273-3.274
		L162,96.049V91h5.092l3.731-3.731l3.73,3.731H179v4.403l3.274,3.273L179,101.95z"/>
	<path fill="#D8BA25" d="M183,137.165V130h-6.709l-5.33-5.33l-5.33,5.33H158v8.088l-4.677,4.676l4.677,4.677V154h6.709l5.33,5.33
		l5.33-5.33H183v-7.482l4.677-4.676L183,137.165z M179,145.253V150h-5.092l-3.73,3.731L166.446,150H162v-4.1l-3.273-3.274
		l3.273-3.273V134h5.092l3.731-3.731l3.73,3.731H179v4.707l3.274,3.273L179,145.253z"/>
	<path fill="#D8BA25" d="M183,180.468V173h-6.709l-5.33-5.33l-5.33,5.33H158v8.392l-4.677,4.676l4.677,4.677V197h6.709l5.33,5.33
		l5.33-5.33H183v-7.179l4.677-4.676L183,180.468z M179,188.557V193h-5.092l-3.73,3.731L166.446,193H162v-3.797l-3.273-3.274
		l3.273-3.273V177h5.092l3.731-3.731l3.73,3.731H179v5.01l3.274,3.273L179,188.557z"/>
	<path fill="#D8BA25" d="M183,223.771V216h-6.709l-5.33-5.33l-5.33,5.33H158v8.695l-4.677,4.676l4.677,4.677V240h6.709l5.33,5.33
		l5.33-5.33H183v-6.875l4.677-4.676L183,223.771z M179,231.86V236h-5.092l-3.73,3.731L166.446,236H162v-3.494l-3.273-3.274
		l3.273-3.273V220h5.092l3.731-3.731l3.73,3.731H179v5.313l3.274,3.273L179,231.86z"/>
	<polygon fill="#D8BA25" points="12,87 5.791,87 0.461,81.67 0,82.132 0,87.592 0.323,87.269 4.054,91 8,91 8,95.403 11.274,98.677 
		8,101.95 8,107 3.408,107 0,110.408 0,115.868 4.868,111 12,111 12,103.215 16.677,98.539 12,93.862 	"/>
	<polygon fill="#D8BA25" points="12,130 5.791,130 0.461,124.67 0,125.132 0,130.592 0.323,130.269 4.054,134 8,134 8,138.707 
		11.274,141.98 8,145.253 8,150 3.408,150 0,153.408 0,158.868 4.868,154 12,154 12,146.518 16.677,141.842 12,137.165 	"/>
	<polygon fill="#D8BA25" points="12,173 5.791,173 0.461,167.67 0,168.132 0,173.592 0.323,173.269 4.054,177 8,177 8,182.01 
		11.274,185.283 8,188.557 8,193 3.408,193 0,196.408 0,201.868 4.868,197 12,197 12,189.821 16.677,185.145 12,180.468 	"/>
	<polygon fill="#D8BA25" points="12,216 5.791,216 0.461,210.67 0,211.132 0,216.592 0.323,216.269 4.054,220 8,220 8,225.313 
		11.274,228.586 8,231.86 8,236 3.408,236 0,239.408 0,244.868 4.868,240 12,240 12,233.125 16.677,228.448 12,223.771 	"/>
	<path fill="#D8BA25" d="M344,93.862V87h-6.209l-5.33-5.33L327.132,87H319v7.785l-4.677,4.676l4.677,4.677V111h7.209l5.33,5.33
		l5.329-5.33H344v-7.785l4.677-4.676L344,93.862z M340,101.95V107h-4.592l-3.73,3.731L327.946,107H323v-4.403l-3.273-3.274
		L323,96.049V91h5.592l3.731-3.731l3.73,3.731H340v4.403l3.273,3.273L340,101.95z"/>
	<path fill="#D8BA25" d="M344,137.165V130h-6.209l-5.33-5.33l-5.329,5.33H319v8.088l-4.677,4.676l4.677,4.677V154h7.209l5.33,5.33
		l5.329-5.33H344v-7.482l4.677-4.676L344,137.165z M340,145.253V150h-4.592l-3.73,3.731L327.946,150H323v-4.1l-3.273-3.274
		l3.273-3.273V134h5.592l3.731-3.731l3.73,3.731H340v4.707l3.273,3.273L340,145.253z"/>
	<path fill="#D8BA25" d="M344,180.468V173h-6.209l-5.33-5.33l-5.329,5.33H319v8.392l-4.677,4.676l4.677,4.677V197h7.209l5.33,5.33
		l5.329-5.33H344v-7.179l4.677-4.676L344,180.468z M340,188.557V193h-4.592l-3.73,3.731L327.946,193H323v-3.797l-3.273-3.274
		l3.273-3.273V177h5.592l3.731-3.731l3.73,3.731H340v5.01l3.273,3.273L340,188.557z"/>
	<path fill="#D8BA25" d="M344,223.771V216h-6.209l-5.33-5.33l-5.329,5.33H319v8.695l-4.677,4.676l4.677,4.677V240h7.209l5.33,5.33
		l5.329-5.33H344v-6.875l4.677-4.676L344,223.771z M340,231.86V236h-4.592l-3.73,3.731L327.946,236H323v-3.494l-3.273-3.274
		l3.273-3.273V220h5.592l3.731-3.731l3.73,3.731H340v5.313l3.273,3.273L340,231.86z"/>
	<path fill="#D8BA25" d="M171,392l-10.5,12.5L171,417l10.5-12.5L171,392z M165.3,404.5l5.7-6.786l5.7,6.786l-5.7,6.786L165.3,404.5z
		"/>
	<path fill="#D8BA25" d="M331.5,392L321,404.5l10.5,12.5l10.5-12.5L331.5,392z M325.8,404.5l5.7-6.786l5.7,6.786l-5.7,6.786
		L325.8,404.5z"/>
	<polygon fill="#D8BA25" points="5.7,404.5 0,411.286 0,417 10.5,404.5 0,392 0,397.714 	"/>
</g>
</svg>
